<?xml version="1.0" encoding="UTF-8"?>
<svg id="Layer_1" data-name="Layer 1" xmlns="http://www.w3.org/2000/svg" viewBox="0 0 1366 768">
  <path d="M827.75,401.17c-.22-6.16-4.21-11.7-10.34-14.39l-110.07-42.05c-.13-61.67-7.67-104.19-24.34-104.19s-24.21,42.52-24.34,104.19l-110.07,42.05c-6.14,2.69-10.12,8.23-10.34,14.39l-.53,14.59c-.08,2.21.94,4.33,2.79,5.78,1.85,1.46,4.31,2.09,6.72,1.73,0,0,86.08-12.69,112.39-16.78,1.05,46.54,2.28,72.43,2.28,72.43l-29.12,13.71c-3.43,1.35-5.68,4.66-5.68,8.34v5.37c0,2.47,1.01,4.83,2.81,6.52,1.79,1.7,4.2,2.58,6.66,2.44l36.79-2.08c1.18,8.19,5.04,14.22,9.63,14.22s8.44-6.02,9.63-14.22l36.79,2.08c2.46.14,4.87-.74,6.66-2.44,1.8-1.7,2.81-4.06,2.81-6.52v-5.37c0-3.69-2.25-6.99-5.68-8.34l-29.13-13.71s1.24-25.88,2.29-72.43c26.31,4.09,112.39,16.78,112.39,16.78,2.41.36,4.88-.28,6.72-1.73,1.85-1.46,2.86-3.58,2.79-5.78l-.53-14.59Z"/>
</svg>